<svg width="240" height="241" viewBox="0 0 240 241" fill="none" xmlns="http://www.w3.org/2000/svg">
<path d="M225.36 120.483C225.36 62.2925 178.187 15.1201 119.997 15.1201C61.807 15.1201 14.6345 62.2925 14.6345 120.483C14.6345 178.673 61.807 225.845 119.997 225.845C178.187 225.845 225.36 178.673 225.36 120.483Z" stroke="#3EC500" stroke-width="29"/>
<mask id="mask0_1_49" style="mask-type:alpha" maskUnits="userSpaceOnUse" x="0" y="0" width="240" height="241">
<path d="M119.997 0.620071C132.484 0.620071 144.551 2.53417 155.906 6.09566C204.546 21.3515 239.859 66.7741 239.859 120.482C239.859 174.191 204.546 219.613 155.906 234.869C144.551 238.431 132.484 240.346 119.997 240.346C53.7988 240.346 0.134766 186.681 0.134766 120.482C0.134852 54.2842 53.7989 0.620137 119.997 0.620071ZM30.4072 135.715C37.6533 178.645 75.0058 211.346 119.997 211.346C125.222 211.346 130.336 210.904 135.307 210.061C126.274 173.043 85.6998 140.909 30.4072 135.715ZM113.643 134.982C137.952 151.428 155.846 174.031 162.904 200.601C187.392 187.458 205.147 163.417 209.708 134.982H113.643ZM162.904 40.3642C155.846 66.9335 137.952 89.5368 113.643 105.982H209.708C205.147 77.5481 187.392 53.5066 162.904 40.3642ZM119.997 29.6201C75.0059 29.6201 37.6535 62.3202 30.4072 105.25C85.7005 100.056 126.275 67.9215 135.307 30.9023C130.336 30.0599 125.222 29.6201 119.997 29.6201Z" fill="#3EC500"/>
</mask>
<g mask="url(#mask0_1_49)">
<path d="M199.017 120.483C199.017 164.124 163.638 199.503 119.997 199.503C76.3556 199.503 15.45 170.964 15.45 127.323C15.45 83.6814 76.3556 41.4631 119.997 41.4631C163.638 41.4631 199.017 76.8414 199.017 120.483Z" fill="#3EC500"/>
</g>
</svg>
